<svg width="545" height="52" viewBox="0 0 545 52" fill="none" xmlns="http://www.w3.org/2000/svg">
<mask id="path-1-outside-1_153_6" maskUnits="userSpaceOnUse" x="0" y="0" width="545" height="52" fill="black">
<rect fill="white" width="545" height="52"/>
<path d="M46 2H55L21 25.5L56 50H47L15 28H7V50H1V2H7V23H15L46 2Z"/>
<path d="M80.64 50V2H86.64V45H124.64V50H80.64Z"/>
<path d="M187.311 1C190.978 1 194.061 1.22917 196.561 1.6875C199.082 2.125 201.155 2.80208 202.78 3.71875C204.405 4.61458 205.655 5.75 206.53 7.125C207.405 8.5 208.04 10.1146 208.436 11.9688C208.853 13.8229 209.092 15.9167 209.155 18.25C209.238 20.5833 209.28 23.1667 209.28 26C209.28 28.8333 209.238 31.4167 209.155 33.75C209.092 36.0833 208.853 38.1771 208.436 40.0312C208.04 41.8854 207.405 43.5 206.53 44.875C205.655 46.25 204.405 47.3958 202.78 48.3125C201.155 49.2083 199.082 49.875 196.561 50.3125C194.061 50.7708 190.978 51 187.311 51H169.249C165.582 51 162.488 50.7708 159.967 50.3125C157.467 49.875 155.405 49.2083 153.78 48.3125C152.155 47.3958 150.895 46.25 149.999 44.875C149.124 43.5 148.478 41.8854 148.061 40.0312C147.665 38.1771 147.436 36.0833 147.374 33.75C147.311 31.4167 147.28 28.8333 147.28 26C147.28 23.1667 147.311 20.5833 147.374 18.25C147.436 15.9167 147.665 13.8229 148.061 11.9688C148.478 10.1146 149.124 8.5 149.999 7.125C150.895 5.75 152.155 4.61458 153.78 3.71875C155.405 2.80208 157.467 2.125 159.967 1.6875C162.488 1.22917 165.582 1 169.249 1H187.311ZM187.311 46C189.957 46 192.186 45.9271 193.999 45.7812C195.832 45.6146 197.342 45.2917 198.53 44.8125C199.717 44.3333 200.634 43.6458 201.28 42.75C201.926 41.8542 202.395 40.6667 202.686 39.1875C202.978 37.7083 203.145 35.8958 203.186 33.75C203.249 31.5833 203.28 29 203.28 26C203.28 23 203.249 20.4271 203.186 18.2812C203.145 16.1146 202.978 14.2917 202.686 12.8125C202.395 11.3333 201.926 10.1458 201.28 9.25C200.634 8.35417 199.717 7.66667 198.53 7.1875C197.363 6.70833 195.863 6.39583 194.03 6.25C192.217 6.08333 189.978 6 187.311 6H169.249C166.582 6 164.332 6.08333 162.499 6.25C160.686 6.39583 159.186 6.70833 157.999 7.1875C156.811 7.66667 155.895 8.35417 155.249 9.25C154.603 10.1458 154.134 11.3333 153.842 12.8125C153.551 14.2917 153.384 16.1146 153.342 18.2812C153.301 20.4271 153.28 23 153.28 26C153.28 29 153.301 31.5833 153.342 33.75C153.405 35.8958 153.582 37.7083 153.874 39.1875C154.165 40.6667 154.624 41.8542 155.249 42.75C155.895 43.6458 156.811 44.3333 157.999 44.8125C159.186 45.2917 160.686 45.6146 162.499 45.7812C164.332 45.9271 166.582 46 169.249 46H187.311Z"/>
<path d="M285.889 17C285.889 14.5 285.618 12.5208 285.076 11.0625C284.535 9.60417 283.639 8.5 282.389 7.75C281.139 7 279.493 6.52083 277.451 6.3125C275.43 6.10417 272.92 6 269.92 6H255.889C253.222 6 250.972 6.08333 249.139 6.25C247.326 6.39583 245.826 6.70833 244.639 7.1875C243.451 7.66667 242.535 8.35417 241.889 9.25C241.243 10.1458 240.774 11.3333 240.482 12.8125C240.191 14.2917 240.024 16.1146 239.982 18.2812C239.941 20.4271 239.92 23 239.92 26C239.92 29 239.941 31.5833 239.982 33.75C240.045 35.8958 240.222 37.7083 240.514 39.1875C240.805 40.6667 241.264 41.8542 241.889 42.75C242.535 43.6458 243.451 44.3333 244.639 44.8125C245.826 45.2917 247.326 45.6146 249.139 45.7812C250.972 45.9271 253.222 46 255.889 46H269.92C272.253 46 274.264 45.9375 275.951 45.8125C277.639 45.6875 279.076 45.4583 280.264 45.125C281.451 44.7917 282.41 44.3333 283.139 43.75C283.868 43.1667 284.43 42.4375 284.826 41.5625C285.243 40.6667 285.524 39.6042 285.67 38.375C285.816 37.125 285.889 35.6667 285.889 34H291.889C291.889 36 291.764 37.8125 291.514 39.4375C291.264 41.0417 290.816 42.4792 290.17 43.75C289.545 45 288.701 46.0833 287.639 47C286.576 47.9167 285.232 48.6771 283.607 49.2812C281.982 49.8646 280.045 50.2917 277.795 50.5625C275.545 50.8542 272.92 51 269.92 51H255.889C252.222 51 249.128 50.7708 246.607 50.3125C244.107 49.875 242.045 49.2083 240.42 48.3125C238.795 47.3958 237.535 46.25 236.639 44.875C235.764 43.5 235.118 41.8854 234.701 40.0312C234.305 38.1771 234.076 36.0833 234.014 33.75C233.951 31.4167 233.92 28.8333 233.92 26C233.92 23.1667 233.951 20.5833 234.014 18.25C234.076 15.9167 234.305 13.8229 234.701 11.9688C235.118 10.1146 235.764 8.5 236.639 7.125C237.535 5.75 238.795 4.61458 240.42 3.71875C242.045 2.80208 244.107 2.125 246.607 1.6875C249.128 1.22917 252.222 1 255.889 1H269.92C272.92 1 275.545 1.14583 277.795 1.4375C280.045 1.70833 281.982 2.13542 283.607 2.71875C285.232 3.28125 286.576 4 287.639 4.875C288.701 5.75 289.545 6.78125 290.17 7.96875C290.816 9.15625 291.264 10.5 291.514 12C291.764 13.5 291.889 15.1667 291.889 17H285.889Z"/>
<path d="M363.56 2H372.56L338.56 25.5L373.56 50H364.56L332.56 28H324.56V50H318.56V2H324.56V23H332.56L363.56 2Z"/>
<path d="M445.2 39H407.2L401.2 50H394.2L422.2 2H430.2L458.2 50H451.2L445.2 39ZM442.2 34L426.2 6L410.2 34H442.2Z"/>
<path d="M488.84 50H482.84V2H493.371L537.371 44V2H543.371V50H535.371L488.84 7V50Z"/>
</mask>
<path d="M46 2H55L21 25.5L56 50H47L15 28H7V50H1V2H7V23H15L46 2Z" fill="black"/>
<path d="M80.64 50V2H86.64V45H124.64V50H80.64Z" fill="black"/>
<path d="M187.311 1C190.978 1 194.061 1.22917 196.561 1.6875C199.082 2.125 201.155 2.80208 202.78 3.71875C204.405 4.61458 205.655 5.75 206.53 7.125C207.405 8.5 208.04 10.1146 208.436 11.9688C208.853 13.8229 209.092 15.9167 209.155 18.25C209.238 20.5833 209.28 23.1667 209.28 26C209.28 28.8333 209.238 31.4167 209.155 33.75C209.092 36.0833 208.853 38.1771 208.436 40.0312C208.04 41.8854 207.405 43.5 206.53 44.875C205.655 46.25 204.405 47.3958 202.78 48.3125C201.155 49.2083 199.082 49.875 196.561 50.3125C194.061 50.7708 190.978 51 187.311 51H169.249C165.582 51 162.488 50.7708 159.967 50.3125C157.467 49.875 155.405 49.2083 153.78 48.3125C152.155 47.3958 150.895 46.25 149.999 44.875C149.124 43.5 148.478 41.8854 148.061 40.0312C147.665 38.1771 147.436 36.0833 147.374 33.75C147.311 31.4167 147.28 28.8333 147.28 26C147.28 23.1667 147.311 20.5833 147.374 18.25C147.436 15.9167 147.665 13.8229 148.061 11.9688C148.478 10.1146 149.124 8.5 149.999 7.125C150.895 5.75 152.155 4.61458 153.78 3.71875C155.405 2.80208 157.467 2.125 159.967 1.6875C162.488 1.22917 165.582 1 169.249 1H187.311ZM187.311 46C189.957 46 192.186 45.9271 193.999 45.7812C195.832 45.6146 197.342 45.2917 198.53 44.8125C199.717 44.3333 200.634 43.6458 201.28 42.75C201.926 41.8542 202.395 40.6667 202.686 39.1875C202.978 37.7083 203.145 35.8958 203.186 33.75C203.249 31.5833 203.28 29 203.28 26C203.28 23 203.249 20.4271 203.186 18.2812C203.145 16.1146 202.978 14.2917 202.686 12.8125C202.395 11.3333 201.926 10.1458 201.28 9.25C200.634 8.35417 199.717 7.66667 198.53 7.1875C197.363 6.70833 195.863 6.39583 194.03 6.25C192.217 6.08333 189.978 6 187.311 6H169.249C166.582 6 164.332 6.08333 162.499 6.25C160.686 6.39583 159.186 6.70833 157.999 7.1875C156.811 7.66667 155.895 8.35417 155.249 9.25C154.603 10.1458 154.134 11.3333 153.842 12.8125C153.551 14.2917 153.384 16.1146 153.342 18.2812C153.301 20.4271 153.28 23 153.28 26C153.28 29 153.301 31.5833 153.342 33.75C153.405 35.8958 153.582 37.7083 153.874 39.1875C154.165 40.6667 154.624 41.8542 155.249 42.75C155.895 43.6458 156.811 44.3333 157.999 44.8125C159.186 45.2917 160.686 45.6146 162.499 45.7812C164.332 45.9271 166.582 46 169.249 46H187.311Z" fill="black"/>
<path d="M285.889 17C285.889 14.5 285.618 12.5208 285.076 11.0625C284.535 9.60417 283.639 8.5 282.389 7.75C281.139 7 279.493 6.52083 277.451 6.3125C275.43 6.10417 272.92 6 269.92 6H255.889C253.222 6 250.972 6.08333 249.139 6.25C247.326 6.39583 245.826 6.70833 244.639 7.1875C243.451 7.66667 242.535 8.35417 241.889 9.25C241.243 10.1458 240.774 11.3333 240.482 12.8125C240.191 14.2917 240.024 16.1146 239.982 18.2812C239.941 20.4271 239.92 23 239.92 26C239.92 29 239.941 31.5833 239.982 33.75C240.045 35.8958 240.222 37.7083 240.514 39.1875C240.805 40.6667 241.264 41.8542 241.889 42.75C242.535 43.6458 243.451 44.3333 244.639 44.8125C245.826 45.2917 247.326 45.6146 249.139 45.7812C250.972 45.9271 253.222 46 255.889 46H269.92C272.253 46 274.264 45.9375 275.951 45.8125C277.639 45.6875 279.076 45.4583 280.264 45.125C281.451 44.7917 282.41 44.3333 283.139 43.75C283.868 43.1667 284.43 42.4375 284.826 41.5625C285.243 40.6667 285.524 39.6042 285.67 38.375C285.816 37.125 285.889 35.6667 285.889 34H291.889C291.889 36 291.764 37.8125 291.514 39.4375C291.264 41.0417 290.816 42.4792 290.17 43.75C289.545 45 288.701 46.0833 287.639 47C286.576 47.9167 285.232 48.6771 283.607 49.2812C281.982 49.8646 280.045 50.2917 277.795 50.5625C275.545 50.8542 272.92 51 269.92 51H255.889C252.222 51 249.128 50.7708 246.607 50.3125C244.107 49.875 242.045 49.2083 240.42 48.3125C238.795 47.3958 237.535 46.25 236.639 44.875C235.764 43.5 235.118 41.8854 234.701 40.0312C234.305 38.1771 234.076 36.0833 234.014 33.75C233.951 31.4167 233.92 28.8333 233.92 26C233.92 23.1667 233.951 20.5833 234.014 18.25C234.076 15.9167 234.305 13.8229 234.701 11.9688C235.118 10.1146 235.764 8.5 236.639 7.125C237.535 5.75 238.795 4.61458 240.42 3.71875C242.045 2.80208 244.107 2.125 246.607 1.6875C249.128 1.22917 252.222 1 255.889 1H269.92C272.92 1 275.545 1.14583 277.795 1.4375C280.045 1.70833 281.982 2.13542 283.607 2.71875C285.232 3.28125 286.576 4 287.639 4.875C288.701 5.75 289.545 6.78125 290.17 7.96875C290.816 9.15625 291.264 10.5 291.514 12C291.764 13.5 291.889 15.1667 291.889 17H285.889Z" fill="black"/>
<path d="M363.56 2H372.56L338.56 25.5L373.56 50H364.56L332.56 28H324.56V50H318.56V2H324.56V23H332.56L363.56 2Z" fill="black"/>
<path d="M445.2 39H407.2L401.2 50H394.2L422.2 2H430.2L458.2 50H451.2L445.2 39ZM442.2 34L426.2 6L410.2 34H442.2Z" fill="black"/>
<path d="M488.84 50H482.84V2H493.371L537.371 44V2H543.371V50H535.371L488.84 7V50Z" fill="black"/>
<path d="M46 2H55L21 25.5L56 50H47L15 28H7V50H1V2H7V23H15L46 2Z" stroke="black" stroke-width="2" mask="url(#path-1-outside-1_153_6)"/>
<path d="M80.64 50V2H86.64V45H124.64V50H80.64Z" stroke="black" stroke-width="2" mask="url(#path-1-outside-1_153_6)"/>
<path d="M187.311 1C190.978 1 194.061 1.22917 196.561 1.6875C199.082 2.125 201.155 2.80208 202.78 3.71875C204.405 4.61458 205.655 5.75 206.53 7.125C207.405 8.5 208.04 10.1146 208.436 11.9688C208.853 13.8229 209.092 15.9167 209.155 18.25C209.238 20.5833 209.28 23.1667 209.28 26C209.28 28.8333 209.238 31.4167 209.155 33.75C209.092 36.0833 208.853 38.1771 208.436 40.0312C208.04 41.8854 207.405 43.5 206.53 44.875C205.655 46.25 204.405 47.3958 202.78 48.3125C201.155 49.2083 199.082 49.875 196.561 50.3125C194.061 50.7708 190.978 51 187.311 51H169.249C165.582 51 162.488 50.7708 159.967 50.3125C157.467 49.875 155.405 49.2083 153.78 48.3125C152.155 47.3958 150.895 46.25 149.999 44.875C149.124 43.5 148.478 41.8854 148.061 40.0312C147.665 38.1771 147.436 36.0833 147.374 33.75C147.311 31.4167 147.28 28.8333 147.28 26C147.28 23.1667 147.311 20.5833 147.374 18.25C147.436 15.9167 147.665 13.8229 148.061 11.9688C148.478 10.1146 149.124 8.5 149.999 7.125C150.895 5.75 152.155 4.61458 153.78 3.71875C155.405 2.80208 157.467 2.125 159.967 1.6875C162.488 1.22917 165.582 1 169.249 1H187.311ZM187.311 46C189.957 46 192.186 45.9271 193.999 45.7812C195.832 45.6146 197.342 45.2917 198.53 44.8125C199.717 44.3333 200.634 43.6458 201.28 42.75C201.926 41.8542 202.395 40.6667 202.686 39.1875C202.978 37.7083 203.145 35.8958 203.186 33.75C203.249 31.5833 203.28 29 203.28 26C203.28 23 203.249 20.4271 203.186 18.2812C203.145 16.1146 202.978 14.2917 202.686 12.8125C202.395 11.3333 201.926 10.1458 201.28 9.25C200.634 8.35417 199.717 7.66667 198.53 7.1875C197.363 6.70833 195.863 6.39583 194.03 6.25C192.217 6.08333 189.978 6 187.311 6H169.249C166.582 6 164.332 6.08333 162.499 6.25C160.686 6.39583 159.186 6.70833 157.999 7.1875C156.811 7.66667 155.895 8.35417 155.249 9.25C154.603 10.1458 154.134 11.3333 153.842 12.8125C153.551 14.2917 153.384 16.1146 153.342 18.2812C153.301 20.4271 153.28 23 153.28 26C153.28 29 153.301 31.5833 153.342 33.75C153.405 35.8958 153.582 37.7083 153.874 39.1875C154.165 40.6667 154.624 41.8542 155.249 42.75C155.895 43.6458 156.811 44.3333 157.999 44.8125C159.186 45.2917 160.686 45.6146 162.499 45.7812C164.332 45.9271 166.582 46 169.249 46H187.311Z" stroke="black" stroke-width="2" mask="url(#path-1-outside-1_153_6)"/>
<path d="M285.889 17C285.889 14.5 285.618 12.5208 285.076 11.0625C284.535 9.60417 283.639 8.5 282.389 7.75C281.139 7 279.493 6.52083 277.451 6.3125C275.43 6.10417 272.92 6 269.92 6H255.889C253.222 6 250.972 6.08333 249.139 6.25C247.326 6.39583 245.826 6.70833 244.639 7.1875C243.451 7.66667 242.535 8.35417 241.889 9.25C241.243 10.1458 240.774 11.3333 240.482 12.8125C240.191 14.2917 240.024 16.1146 239.982 18.2812C239.941 20.4271 239.92 23 239.92 26C239.92 29 239.941 31.5833 239.982 33.75C240.045 35.8958 240.222 37.7083 240.514 39.1875C240.805 40.6667 241.264 41.8542 241.889 42.75C242.535 43.6458 243.451 44.3333 244.639 44.8125C245.826 45.2917 247.326 45.6146 249.139 45.7812C250.972 45.9271 253.222 46 255.889 46H269.92C272.253 46 274.264 45.9375 275.951 45.8125C277.639 45.6875 279.076 45.4583 280.264 45.125C281.451 44.7917 282.41 44.3333 283.139 43.75C283.868 43.1667 284.43 42.4375 284.826 41.5625C285.243 40.6667 285.524 39.6042 285.67 38.375C285.816 37.125 285.889 35.6667 285.889 34H291.889C291.889 36 291.764 37.8125 291.514 39.4375C291.264 41.0417 290.816 42.4792 290.17 43.75C289.545 45 288.701 46.0833 287.639 47C286.576 47.9167 285.232 48.6771 283.607 49.2812C281.982 49.8646 280.045 50.2917 277.795 50.5625C275.545 50.8542 272.92 51 269.92 51H255.889C252.222 51 249.128 50.7708 246.607 50.3125C244.107 49.875 242.045 49.2083 240.42 48.3125C238.795 47.3958 237.535 46.25 236.639 44.875C235.764 43.5 235.118 41.8854 234.701 40.0312C234.305 38.1771 234.076 36.0833 234.014 33.75C233.951 31.4167 233.92 28.8333 233.92 26C233.92 23.1667 233.951 20.5833 234.014 18.25C234.076 15.9167 234.305 13.8229 234.701 11.9688C235.118 10.1146 235.764 8.5 236.639 7.125C237.535 5.75 238.795 4.61458 240.42 3.71875C242.045 2.80208 244.107 2.125 246.607 1.6875C249.128 1.22917 252.222 1 255.889 1H269.92C272.92 1 275.545 1.14583 277.795 1.4375C280.045 1.70833 281.982 2.13542 283.607 2.71875C285.232 3.28125 286.576 4 287.639 4.875C288.701 5.75 289.545 6.78125 290.17 7.96875C290.816 9.15625 291.264 10.5 291.514 12C291.764 13.5 291.889 15.1667 291.889 17H285.889Z" stroke="black" stroke-width="2" mask="url(#path-1-outside-1_153_6)"/>
<path d="M363.56 2H372.56L338.56 25.5L373.56 50H364.56L332.56 28H324.56V50H318.56V2H324.56V23H332.56L363.56 2Z" stroke="black" stroke-width="2" mask="url(#path-1-outside-1_153_6)"/>
<path d="M445.2 39H407.2L401.2 50H394.2L422.2 2H430.2L458.2 50H451.2L445.2 39ZM442.2 34L426.2 6L410.2 34H442.2Z" stroke="black" stroke-width="2" mask="url(#path-1-outside-1_153_6)"/>
<path d="M488.84 50H482.84V2H493.371L537.371 44V2H543.371V50H535.371L488.84 7V50Z" stroke="black" stroke-width="2" mask="url(#path-1-outside-1_153_6)"/>
</svg>
